<svg class="tutorial-anim tutorial-anim--water" viewBox="0 0 400 300" role="img" aria-hidden="true" focusable="false"><defs><pattern id="farm-hatch-R0" class="farm-scene__hatch" width="7" height="7" patternUnits="userSpaceOnUse" patternTransform="rotate(45)"><line class="farm-scene__hatch-line" x1="0" y1="0" x2="0" y2="7"></line></pattern><pattern id="farm-stipple-R0H1" class="farm-scene__stipple" width="3.2" height="3.2" patternUnits="userSpaceOnUse"><circle class="farm-scene__stipple-dot" cx="1.6" cy="1.6" r="0.8"></circle></pattern></defs><g class="farm-scene__layer farm-scene__layer--ground" data-layer="ground"><rect class="farm-scene__ground" x="0" y="0" width="400" height="300"></rect></g><g class="farm-scene"><g class="farm-scene__layer farm-scene__layer--road" data-layer="road"><path class="farm-scene__road-band" d="M -20 40 C 90 16, 230 20, 420 52"></path><path class="farm-scene__road-line" d="M -20 40 C 90 16, 230 20, 420 52"></path></g><g class="farm-scene__layer farm-scene__layer--open" data-layer="open"><path class="farm-scene__open" d="M 96 66 L 196 48 L 286 72 L 330 148 L 300 232 L 170 250 L 92 186 Z"></path></g><g class="farm-scene__layer farm-scene__layer--stream" data-layer="stream"><path class="farm-scene__stream" d="M 316 92 C 282 128, 268 140, 246 168 S 196 214, 150 246"></path></g><g class="farm-scene__layer farm-scene__layer--woodlot" data-layer="woodlot"><path class="farm-scene__woodmass" d="M 300 96 C 330 130, 322 176, 296 208 C 268 236, 236 226, 232 196 C 228 166, 262 120, 300 96 Z"></path><circle class="farm-scene__canopy" cx="292" cy="118" r="7"></circle><circle class="farm-scene__canopy" cx="308" cy="140" r="6"></circle><circle class="farm-scene__canopy" cx="284" cy="150" r="8"></circle><circle class="farm-scene__canopy" cx="300" cy="172" r="7"></circle><circle class="farm-scene__canopy" cx="272" cy="182" r="6.5"></circle><circle class="farm-scene__canopy" cx="286" cy="200" r="6"></circle><circle class="farm-scene__canopy" cx="252" cy="196" r="5.5"></circle></g><g class="farm-scene__layer farm-scene__layer--building" data-layer="building"><rect class="farm-scene__building" x="158" y="76" width="18" height="12" rx="1"></rect></g><g class="farm-scene__layer farm-scene__layer--labels" data-layer="labels"><text class="farm-scene__label" data-label="road" x="22" y="34">ROAD</text><text class="farm-scene__label" data-label="woods" x="318" y="216">WOODS</text><text class="farm-scene__label" data-label="stream" x="186" y="268">STREAM</text></g></g><g class="farm-scene__layer farm-scene__layer--parcel" data-layer="parcel"><path class="farm-scene__parcel" d="M 96 66 L 196 48 L 286 72 L 330 148 L 300 232 L 170 250 L 92 186 Z"></path></g><g class="farm-scene__layer farm-scene__layer--blocks farm-scene__layer--settled" data-layer="blocks"><g class="farm-scene__block" data-block="1" style="--farm-hatch:url(#farm-hatch-R0)"><path class="farm-scene__block-base" d="M 112 104 C 114 86, 140 78, 162 84 C 182 90, 187 118, 178 134 C 170 150, 136 153, 122 142 C 112 134, 110 120, 112 104 Z"></path><path class="farm-scene__block-hatch" d="M 112 104 C 114 86, 140 78, 162 84 C 182 90, 187 118, 178 134 C 170 150, 136 153, 122 142 C 112 134, 110 120, 112 104 Z"></path></g></g><g class="farm-scene__layer farm-scene__layer--survey-excavated tutorial-anim__survey--water-excavated" data-layer="survey-excavated"><path class="farm-scene__survey farm-scene__survey--excavated" data-mark="stipple" d="M 172 156 C 188 146, 212 150, 220 164 C 228 178, 219 192, 200 195 C 181 198, 167 188, 164 175 C 162 166, 166 159, 172 156 Z" style="--farm-stipple:url(#farm-stipple-R0H1)"></path></g><g class="farm-scene__layer farm-scene__layer--survey-embankment" data-layer="survey-embankment"><path class="farm-scene__survey farm-scene__survey--embankment" data-mark="tint" d="M 138 172 C 152 160, 178 162, 188 174 C 198 185, 191 201, 172 205 C 152 209, 136 200, 133 187 C 131 179, 132 175, 138 172 Z"></path></g><path class="tutorial-anim__mark tutorial-anim__mark--water" d="M 138 172 C 152 160, 178 162, 188 174 C 198 185, 191 201, 172 205 C 152 209, 136 200, 133 187 C 131 179, 132 175, 138 172 Z"></path><circle class="tutorial-anim__pulse tutorial-anim__pulse--water-1" cx="150" cy="190" r="18"></circle><circle class="tutorial-anim__pulse tutorial-anim__pulse--water-2" cx="142.5" cy="275.5" r="14"></circle><g class="tutorial-anim__panel tutorial-anim__panel--water"><rect x="252" y="20" width="132" height="78" rx="1"></rect><text class="tutorial-anim__name" x="264" y="38">Embankment 1</text><line class="tutorial-anim__rule" x1="264" y1="46" x2="372" y2="46"></line><text x="264" y="64" class="tutorial-anim__reading tutorial-anim__reading--water-1"><tspan class="tutorial-anim__value">2.1</tspan><tspan class="tutorial-anim__label" x="292">survey acres</tspan></text><text x="264" y="82" class="tutorial-anim__reading tutorial-anim__reading--water-2"><tspan class="tutorial-anim__value">57</tspan><tspan class="tutorial-anim__label" x="292">/100 score</tspan></text></g><g class="tutorial-anim__commit-button tutorial-anim__commit-button--water"><rect x="262" y="222" width="126" height="28" rx="1"></rect><text class="tutorial-anim__commit-label" x="325" y="240" text-anchor="middle">Commit Survey Areas</text></g><g class="tutorial-anim__tabs"><g class="tutorial-anim__tab tutorial-anim__tab--water-embankment" data-area="embankment"><rect class="tutorial-anim__tab-card" x="16" y="262" width="110" height="28" rx="1"></rect><rect class="tutorial-anim__check" x="23" y="270" width="11" height="11" rx="1"></rect><path class="tutorial-anim__tick tutorial-anim__tick--water-embankment" d="M 25.5 275.5 L 28 278.5 L 31.5 272.5"></path><text class="tutorial-anim__name" x="40" y="280">Embankment 1</text></g><g class="tutorial-anim__tab tutorial-anim__tab--water-excavated" data-area="excavated"><rect class="tutorial-anim__tab-card" x="130" y="262" width="100" height="28" rx="1"></rect><rect class="tutorial-anim__check" x="137" y="270" width="11" height="11" rx="1"></rect><path class="tutorial-anim__tick tutorial-anim__tick--water-excavated" d="M 139.5 275.5 L 142 278.5 L 145.5 272.5"></path><text class="tutorial-anim__name" x="154" y="280">Excavated 1</text></g><rect class="tutorial-anim__tab-mark tutorial-anim__tab-mark--water" x="16" y="262" width="110" height="28" rx="1"></rect></g><g class="tutorial-anim__cursor tutorial-anim__cursor--water" aria-hidden="true"><path class="tutorial-anim__pointer tutorial-anim__pointer--water" d="M0 0 L0 14.5 L3.6 11.2 L6.1 16.6 L8.7 15.5 L6.2 10.2 L11.2 10.2 Z"></path></g></svg>
